# MagicaVoxel @ Ephtracy

# material
mtllib arch.mtl
usemtl palette

# normals
vn -1 0 0
vn 1 0 0
vn 0 0 1
vn 0 0 -1
vn 0 -1 0
vn 0 1 0

# texcoords
vt 0.0917969 0.5
vt 0.841797 0.5
vt 0.958984 0.5
vt 0.994141 0.5

# verts
v -19 29 -0
v -19 29 -3
v -19 31 -0
v -19 31 -3
v -5 0 4
v -5 0 -2
v -5 2 4
v -5 2 -0
v -5 2 -2
v -5 11 -0
v -5 11 -2
v -5 15 -2
v -5 15 -3
v -5 19 -0
v -5 19 -3
v -5 29 -0
v -5 29 -3
v -3 32 -0
v -3 32 -4
v -3 35 -1
v -3 35 -4
v -3 38 -0
v -3 38 -1
v -3 39 -0
v -3 39 -4
v -1 31 -1
v -1 31 -2
v -1 32 -1
v -1 32 -2
v 2 0 4
v 2 0 -2
v 2 2 4
v 2 2 -0
v 2 2 -2
v 2 11 -0
v 2 11 -2
v 2 15 -0
v 2 15 -2
v 10 19 2
v 10 19 1
v 10 20 2
v 10 20 1
v 10 38 2
v 10 38 1
v 10 39 2
v 10 39 1
v 11 19 1
v 11 19 -0
v 11 20 1
v 11 21 1
v 11 21 -0
v 11 37 1
v 11 37 -0
v 11 38 1
v 11 39 1
v 11 39 -0
v 12 21 2
v 12 21 -0
v 12 22 2
v 12 22 -0
v 12 36 2
v 12 36 -0
v 12 37 2
v 12 37 -0
v 13 22 2
v 13 22 -0
v 13 23 2
v 13 23 -0
v 13 35 2
v 13 35 -0
v 13 36 2
v 13 36 -0
v 14 23 2
v 14 23 -0
v 14 24 2
v 14 24 -0
v 14 34 2
v 14 34 -0
v 14 35 2
v 14 35 -0
v 15 24 2
v 15 24 -0
v 15 25 2
v 15 25 -0
v 15 33 2
v 15 33 -0
v 15 34 2
v 15 34 -0
v 16 25 2
v 16 25 -0
v 16 26 2
v 16 26 -0
v 16 32 2
v 16 32 -0
v 16 33 2
v 16 33 -0
v 17 26 2
v 17 26 -0
v 17 27 1
v 17 27 -0
v 17 31 1
v 17 31 -0
v 17 32 2
v 17 32 -0
v -2 0 4
v -2 0 -2
v -2 2 4
v -2 2 -0
v -2 2 -2
v -2 11 -0
v -2 11 -2
v -2 15 -0
v -2 15 -2
v 1 31 -1
v 1 31 -2
v 1 32 -1
v 1 32 -2
v 3 32 -0
v 3 32 -4
v 3 35 -1
v 3 35 -4
v 3 38 -0
v 3 38 -1
v 3 39 -0
v 3 39 -4
v 5 0 4
v 5 0 -2
v 5 2 4
v 5 2 -0
v 5 2 -2
v 5 11 -0
v 5 11 -2
v 5 15 -2
v 5 15 -3
v 5 19 -0
v 5 19 -3
v 5 29 -0
v 5 29 -3
v 11 21 2
v 11 21 1
v 11 37 2
v 11 37 1
v 12 19 2
v 12 19 -0
v 12 20 2
v 12 20 -0
v 12 38 2
v 12 38 -0
v 12 39 2
v 12 39 -0
v 13 20 2
v 13 20 -0
v 13 21 2
v 13 21 -0
v 13 37 2
v 13 37 -0
v 13 38 2
v 13 38 -0
v 14 21 2
v 14 21 -0
v 14 22 2
v 14 22 -0
v 14 36 2
v 14 36 -0
v 14 37 2
v 14 37 -0
v 15 22 2
v 15 22 -0
v 15 23 2
v 15 23 -0
v 15 35 2
v 15 35 -0
v 15 36 2
v 15 36 -0
v 16 23 2
v 16 23 -0
v 16 24 2
v 16 24 -0
v 16 34 2
v 16 34 -0
v 16 35 2
v 16 35 -0
v 17 24 2
v 17 24 -0
v 17 25 2
v 17 25 -0
v 17 33 2
v 17 33 -0
v 17 34 2
v 17 34 -0
v 18 25 2
v 18 25 -0
v 18 26 2
v 18 26 -0
v 18 32 2
v 18 32 -0
v 18 33 2
v 18 33 -0
v 19 26 2
v 19 26 -0
v 19 27 1
v 19 27 -0
v 19 29 -0
v 19 29 -3
v 19 31 1
v 19 31 -0
v 19 31 -3
v 19 32 2
v 19 32 -0
v -5 0 4
v -5 2 4
v -2 0 4
v -2 2 4
v 2 0 4
v 2 2 4
v 5 0 4
v 5 2 4
v 10 19 2
v 10 20 2
v 10 38 2
v 10 39 2
v 11 20 2
v 11 21 2
v 11 37 2
v 11 38 2
v 12 19 2
v 12 20 2
v 12 21 2
v 12 22 2
v 12 36 2
v 12 37 2
v 12 38 2
v 12 39 2
v 13 20 2
v 13 21 2
v 13 22 2
v 13 23 2
v 13 35 2
v 13 36 2
v 13 37 2
v 13 38 2
v 14 21 2
v 14 22 2
v 14 23 2
v 14 24 2
v 14 34 2
v 14 35 2
v 14 36 2
v 14 37 2
v 15 22 2
v 15 23 2
v 15 24 2
v 15 25 2
v 15 33 2
v 15 34 2
v 15 35 2
v 15 36 2
v 16 23 2
v 16 24 2
v 16 25 2
v 16 26 2
v 16 32 2
v 16 33 2
v 16 34 2
v 16 35 2
v 17 24 2
v 17 25 2
v 17 26 2
v 17 32 2
v 17 33 2
v 17 34 2
v 18 25 2
v 18 26 2
v 18 32 2
v 18 33 2
v 19 26 2
v 19 32 2
v -19 29 -0
v -19 31 -0
v -17 29 -0
v -17 31 -0
v -16 29 -0
v -16 31 -0
v -12 29 -0
v -12 31 -0
v -11 29 -0
v -11 31 -0
v -6 29 -0
v -6 31 -0
v -5 2 -0
v -5 11 -0
v -5 19 -0
v -5 29 -0
v -3 26 -0
v -3 27 -0
v -3 28 -0
v -3 29 -0
v -3 31 -0
v -3 32 -0
v -3 38 -0
v -3 39 -0
v -2 2 -0
v -2 11 -0
v -2 15 -0
v -2 29 -0
v -2 31 -0
v -2 36 -0
v -2 37 -0
v -1 19 -0
v -1 26 -0
v -1 28 -0
v -1 29 -0
v -1 30 -0
v -1 31 -0
v -1 33 -0
v -1 34 -0
v -1 36 -0
v -1 37 -0
v 1 19 -0
v 1 26 -0
v 1 28 -0
v 1 29 -0
v 1 30 -0
v 1 31 -0
v 1 33 -0
v 1 34 -0
v 1 36 -0
v 1 37 -0
v 2 2 -0
v 2 11 -0
v 2 15 -0
v 2 29 -0
v 2 31 -0
v 2 36 -0
v 2 37 -0
v 3 26 -0
v 3 27 -0
v 3 28 -0
v 3 29 -0
v 3 31 -0
v 3 32 -0
v 3 38 -0
v 3 39 -0
v 5 2 -0
v 5 11 -0
v 5 19 -0
v 5 29 -0
v 6 29 -0
v 6 31 -0
v 11 29 -0
v 11 31 -0
v 12 29 -0
v 12 31 -0
v 16 29 -0
v 16 31 -0
v 17 29 -0
v 17 31 -0
v 19 29 -0
v 19 31 -0
v -1 31 -1
v -1 32 -1
v 1 31 -1
v 1 32 -1
v 10 19 1
v 10 20 1
v 10 38 1
v 10 39 1
v 11 19 1
v 11 20 1
v 11 21 1
v 11 37 1
v 11 38 1
v 11 39 1
v 17 27 1
v 17 31 1
v 19 27 1
v 19 31 1
v 11 19 -0
v 11 21 -0
v 11 37 -0
v 11 39 -0
v 12 19 -0
v 12 20 -0
v 12 21 -0
v 12 22 -0
v 12 36 -0
v 12 37 -0
v 12 38 -0
v 12 39 -0
v 13 20 -0
v 13 21 -0
v 13 22 -0
v 13 23 -0
v 13 35 -0
v 13 36 -0
v 13 37 -0
v 13 38 -0
v 14 21 -0
v 14 22 -0
v 14 23 -0
v 14 24 -0
v 14 34 -0
v 14 35 -0
v 14 36 -0
v 14 37 -0
v 15 22 -0
v 15 23 -0
v 15 24 -0
v 15 25 -0
v 15 33 -0
v 15 34 -0
v 15 35 -0
v 15 36 -0
v 16 23 -0
v 16 24 -0
v 16 25 -0
v 16 26 -0
v 16 32 -0
v 16 33 -0
v 16 34 -0
v 16 35 -0
v 17 24 -0
v 17 25 -0
v 17 26 -0
v 17 27 -0
v 17 31 -0
v 17 32 -0
v 17 33 -0
v 17 34 -0
v 18 25 -0
v 18 26 -0
v 18 32 -0
v 18 33 -0
v 19 26 -0
v 19 27 -0
v 19 31 -0
v 19 32 -0
v -5 0 -2
v -5 2 -2
v -5 11 -2
v -5 15 -2
v -2 0 -2
v -2 2 -2
v -2 11 -2
v -2 15 -2
v -1 31 -2
v -1 32 -2
v 1 31 -2
v 1 32 -2
v 2 0 -2
v 2 2 -2
v 2 11 -2
v 2 15 -2
v 5 0 -2
v 5 2 -2
v 5 11 -2
v 5 15 -2
v -19 29 -3
v -19 31 -3
v -17 29 -3
v -17 31 -3
v -16 29 -3
v -16 31 -3
v -12 29 -3
v -12 31 -3
v -11 29 -3
v -11 31 -3
v -6 29 -3
v -6 31 -3
v -5 15 -3
v -5 19 -3
v -5 29 -3
v -4 19 -3
v -4 29 -3
v -3 29 -3
v -3 31 -3
v 3 29 -3
v 3 31 -3
v 4 19 -3
v 4 29 -3
v 5 15 -3
v 5 19 -3
v 5 29 -3
v 6 29 -3
v 6 31 -3
v 11 29 -3
v 11 31 -3
v 12 29 -3
v 12 31 -3
v 16 29 -3
v 16 31 -3
v 17 29 -3
v 17 31 -3
v 19 29 -3
v 19 31 -3
v -3 32 -4
v -3 35 -4
v -3 39 -4
v 3 32 -4
v 3 35 -4
v 3 39 -4
v -5 0 4
v -2 0 4
v 2 0 4
v 5 0 4
v -5 0 -2
v -2 0 -2
v 2 0 -2
v 5 0 -2
v -2 15 -0
v 2 15 -0
v -5 15 -2
v -2 15 -2
v 2 15 -2
v 5 15 -2
v -5 15 -3
v 5 15 -3
v 10 19 2
v 12 19 2
v 10 19 1
v 11 19 1
v 11 19 -0
v 12 19 -0
v 12 20 2
v 13 20 2
v 12 20 -0
v 13 20 -0
v 13 21 2
v 14 21 2
v 13 21 -0
v 14 21 -0
v 14 22 2
v 15 22 2
v 14 22 -0
v 15 22 -0
v 15 23 2
v 16 23 2
v 15 23 -0
v 16 23 -0
v 16 24 2
v 17 24 2
v 16 24 -0
v 17 24 -0
v 17 25 2
v 18 25 2
v 17 25 -0
v 18 25 -0
v 18 26 2
v 19 26 2
v 18 26 -0
v 19 26 -0
v -19 29 -0
v -17 29 -0
v -16 29 -0
v -12 29 -0
v -11 29 -0
v -6 29 -0
v -5 29 -0
v 5 29 -0
v 6 29 -0
v 11 29 -0
v 12 29 -0
v 16 29 -0
v 17 29 -0
v 19 29 -0
v -19 29 -3
v -17 29 -3
v -16 29 -3
v -12 29 -3
v -11 29 -3
v -6 29 -3
v -5 29 -3
v 5 29 -3
v 6 29 -3
v 11 29 -3
v 12 29 -3
v 16 29 -3
v 17 29 -3
v 19 29 -3
v 17 31 1
v 19 31 1
v 17 31 -0
v 19 31 -0
v 16 32 2
v 17 32 2
v -3 32 -0
v 3 32 -0
v 16 32 -0
v 17 32 -0
v -1 32 -1
v 1 32 -1
v -1 32 -2
v 1 32 -2
v -3 32 -4
v 3 32 -4
v 15 33 2
v 16 33 2
v 15 33 -0
v 16 33 -0
v 14 34 2
v 15 34 2
v 14 34 -0
v 15 34 -0
v 13 35 2
v 14 35 2
v 13 35 -0
v 14 35 -0
v 12 36 2
v 13 36 2
v 12 36 -0
v 13 36 -0
v 11 37 2
v 12 37 2
v 11 37 1
v 11 37 -0
v 12 37 -0
v -5 2 4
v -2 2 4
v 2 2 4
v 5 2 4
v -5 2 -0
v -2 2 -0
v 2 2 -0
v 5 2 -0
v 11 21 2
v 12 21 2
v 11 21 1
v 11 21 -0
v 12 21 -0
v 12 22 2
v 13 22 2
v 12 22 -0
v 13 22 -0
v 13 23 2
v 14 23 2
v 13 23 -0
v 14 23 -0
v 14 24 2
v 15 24 2
v 14 24 -0
v 15 24 -0
v 15 25 2
v 16 25 2
v 15 25 -0
v 16 25 -0
v 16 26 2
v 17 26 2
v 16 26 -0
v 17 26 -0
v 17 27 1
v 19 27 1
v 17 27 -0
v 19 27 -0
v -19 31 -0
v -17 31 -0
v -16 31 -0
v -12 31 -0
v -11 31 -0
v -6 31 -0
v -3 31 -0
v -2 31 -0
v -1 31 -0
v 1 31 -0
v 2 31 -0
v 3 31 -0
v 6 31 -0
v 11 31 -0
v 12 31 -0
v 16 31 -0
v 17 31 -0
v 19 31 -0
v -2 31 -1
v -1 31 -1
v 1 31 -1
v 2 31 -1
v -1 31 -2
v 1 31 -2
v -19 31 -3
v -17 31 -3
v -16 31 -3
v -12 31 -3
v -11 31 -3
v -6 31 -3
v -3 31 -3
v 3 31 -3
v 6 31 -3
v 11 31 -3
v 12 31 -3
v 16 31 -3
v 17 31 -3
v 19 31 -3
v 18 32 2
v 19 32 2
v 18 32 -0
v 19 32 -0
v 17 33 2
v 18 33 2
v 17 33 -0
v 18 33 -0
v 16 34 2
v 17 34 2
v 16 34 -0
v 17 34 -0
v 15 35 2
v 16 35 2
v 15 35 -0
v 16 35 -0
v 14 36 2
v 15 36 2
v 14 36 -0
v 15 36 -0
v 13 37 2
v 14 37 2
v 13 37 -0
v 14 37 -0
v 12 38 2
v 13 38 2
v 12 38 -0
v 13 38 -0
v 10 39 2
v 12 39 2
v 10 39 1
v 11 39 1
v -3 39 -0
v 3 39 -0
v 11 39 -0
v 12 39 -0
v -3 39 -4
v 3 39 -4

# faces
f 3/1/1 2/1/1 1/1/1
f 4/1/1 2/1/1 3/1/1
f 7/4/1 6/4/1 5/4/1
f 8/4/1 6/4/1 7/4/1
f 9/4/1 6/4/1 8/4/1
f 10/1/1 9/1/1 8/1/1
f 11/1/1 9/1/1 10/1/1
f 12/4/1 11/4/1 10/4/1
f 14/4/1 12/4/1 10/4/1
f 14/4/1 13/4/1 12/4/1
f 15/4/1 13/4/1 14/4/1
f 16/3/1 15/3/1 14/3/1
f 17/3/1 15/3/1 16/3/1
f 20/1/1 19/1/1 18/1/1
f 21/1/1 19/1/1 20/1/1
f 22/1/1 20/1/1 18/1/1
f 23/4/1 21/4/1 20/4/1
f 23/1/1 20/1/1 22/1/1
f 24/4/1 23/4/1 22/4/1
f 25/4/1 21/4/1 23/4/1
f 25/4/1 23/4/1 24/4/1
f 28/1/1 27/1/1 26/1/1
f 29/1/1 27/1/1 28/1/1
f 32/4/1 31/4/1 30/4/1
f 33/4/1 31/4/1 32/4/1
f 34/4/1 31/4/1 33/4/1
f 35/1/1 34/1/1 33/1/1
f 36/1/1 34/1/1 35/1/1
f 37/4/1 36/4/1 35/4/1
f 38/4/1 36/4/1 37/4/1
f 41/4/1 40/4/1 39/4/1
f 42/4/1 40/4/1 41/4/1
f 43/3/1 42/3/1 41/3/1
f 44/3/1 42/3/1 43/3/1
f 45/4/1 44/4/1 43/4/1
f 46/4/1 44/4/1 45/4/1
f 49/4/1 48/4/1 47/4/1
f 50/4/1 48/4/1 49/4/1
f 51/4/1 48/4/1 50/4/1
f 54/4/1 53/4/1 52/4/1
f 55/4/1 53/4/1 54/4/1
f 56/4/1 53/4/1 55/4/1
f 59/4/1 58/4/1 57/4/1
f 60/4/1 58/4/1 59/4/1
f 63/4/1 62/4/1 61/4/1
f 64/4/1 62/4/1 63/4/1
f 67/4/1 66/4/1 65/4/1
f 68/4/1 66/4/1 67/4/1
f 71/4/1 70/4/1 69/4/1
f 72/4/1 70/4/1 71/4/1
f 75/4/1 74/4/1 73/4/1
f 76/4/1 74/4/1 75/4/1
f 79/4/1 78/4/1 77/4/1
f 80/4/1 78/4/1 79/4/1
f 83/4/1 82/4/1 81/4/1
f 84/4/1 82/4/1 83/4/1
f 87/4/1 86/4/1 85/4/1
f 88/4/1 86/4/1 87/4/1
f 91/4/1 90/4/1 89/4/1
f 92/4/1 90/4/1 91/4/1
f 95/4/1 94/4/1 93/4/1
f 96/4/1 94/4/1 95/4/1
f 99/4/1 98/4/1 97/4/1
f 100/4/1 98/4/1 99/4/1
f 101/4/1 99/4/1 97/4/1
f 103/4/1 101/4/1 97/4/1
f 103/4/1 102/4/1 101/4/1
f 104/4/1 102/4/1 103/4/1
f 105/4/2 106/4/2 107/4/2
f 107/4/2 106/4/2 108/4/2
f 108/4/2 106/4/2 109/4/2
f 108/1/2 109/1/2 110/1/2
f 110/1/2 109/1/2 111/1/2
f 110/4/2 111/4/2 112/4/2
f 112/4/2 111/4/2 113/4/2
f 114/1/2 115/1/2 116/1/2
f 116/1/2 115/1/2 117/1/2
f 118/1/2 119/1/2 120/1/2
f 120/1/2 119/1/2 121/1/2
f 118/1/2 120/1/2 122/1/2
f 120/4/2 121/4/2 123/4/2
f 122/1/2 120/1/2 123/1/2
f 122/4/2 123/4/2 124/4/2
f 123/4/2 121/4/2 125/4/2
f 124/4/2 123/4/2 125/4/2
f 126/4/2 127/4/2 128/4/2
f 128/4/2 127/4/2 129/4/2
f 129/4/2 127/4/2 130/4/2
f 129/1/2 130/1/2 131/1/2
f 131/1/2 130/1/2 132/1/2
f 131/4/2 132/4/2 133/4/2
f 131/4/2 133/4/2 135/4/2
f 133/4/2 134/4/2 135/4/2
f 135/4/2 134/4/2 136/4/2
f 135/3/2 136/3/2 137/3/2
f 137/3/2 136/3/2 138/3/2
f 139/3/2 140/3/2 141/3/2
f 141/3/2 140/3/2 142/3/2
f 143/4/2 144/4/2 145/4/2
f 145/4/2 144/4/2 146/4/2
f 147/4/2 148/4/2 149/4/2
f 149/4/2 148/4/2 150/4/2
f 151/4/2 152/4/2 153/4/2
f 153/4/2 152/4/2 154/4/2
f 155/4/2 156/4/2 157/4/2
f 157/4/2 156/4/2 158/4/2
f 159/4/2 160/4/2 161/4/2
f 161/4/2 160/4/2 162/4/2
f 163/4/2 164/4/2 165/4/2
f 165/4/2 164/4/2 166/4/2
f 167/4/2 168/4/2 169/4/2
f 169/4/2 168/4/2 170/4/2
f 171/4/2 172/4/2 173/4/2
f 173/4/2 172/4/2 174/4/2
f 175/4/2 176/4/2 177/4/2
f 177/4/2 176/4/2 178/4/2
f 179/4/2 180/4/2 181/4/2
f 181/4/2 180/4/2 182/4/2
f 183/4/2 184/4/2 185/4/2
f 185/4/2 184/4/2 186/4/2
f 187/4/2 188/4/2 189/4/2
f 189/4/2 188/4/2 190/4/2
f 191/4/2 192/4/2 193/4/2
f 193/4/2 192/4/2 194/4/2
f 195/4/2 196/4/2 197/4/2
f 197/4/2 196/4/2 198/4/2
f 199/4/2 200/4/2 201/4/2
f 201/4/2 200/4/2 202/4/2
f 199/4/2 201/4/2 205/4/2
f 203/1/2 204/1/2 206/1/2
f 206/1/2 204/1/2 207/1/2
f 199/4/2 205/4/2 208/4/2
f 205/4/2 206/4/2 208/4/2
f 208/4/2 206/4/2 209/4/2
f 212/4/3 211/4/3 210/4/3
f 213/4/3 211/4/3 212/4/3
f 216/4/3 215/4/3 214/4/3
f 217/4/3 215/4/3 216/4/3
f 222/4/3 219/4/3 218/4/3
f 222/3/3 220/3/3 219/3/3
f 223/3/3 220/3/3 222/3/3
f 224/3/3 220/3/3 223/3/3
f 225/4/3 221/4/3 220/4/3
f 225/3/3 220/3/3 224/3/3
f 226/4/3 222/4/3 218/4/3
f 226/4/3 223/4/3 222/4/3
f 227/4/3 223/4/3 226/4/3
f 228/4/3 223/4/3 227/4/3
f 231/4/3 225/4/3 224/4/3
f 232/4/3 221/4/3 225/4/3
f 232/4/3 225/4/3 231/4/3
f 233/4/3 221/4/3 232/4/3
f 234/4/3 229/4/3 228/4/3
f 234/4/3 228/4/3 227/4/3
f 235/4/3 229/4/3 234/4/3
f 236/4/3 229/4/3 235/4/3
f 239/4/3 231/4/3 230/4/3
f 239/4/3 232/4/3 231/4/3
f 240/4/3 232/4/3 239/4/3
f 241/4/3 232/4/3 240/4/3
f 242/4/3 237/4/3 236/4/3
f 242/4/3 236/4/3 235/4/3
f 243/4/3 237/4/3 242/4/3
f 244/4/3 237/4/3 243/4/3
f 247/4/3 240/4/3 239/4/3
f 247/4/3 239/4/3 238/4/3
f 248/4/3 240/4/3 247/4/3
f 249/4/3 240/4/3 248/4/3
f 250/4/3 245/4/3 244/4/3
f 250/4/3 244/4/3 243/4/3
f 251/4/3 245/4/3 250/4/3
f 252/4/3 245/4/3 251/4/3
f 255/4/3 248/4/3 247/4/3
f 255/4/3 247/4/3 246/4/3
f 256/4/3 248/4/3 255/4/3
f 257/4/3 248/4/3 256/4/3
f 258/4/3 253/4/3 252/4/3
f 258/4/3 252/4/3 251/4/3
f 259/4/3 253/4/3 258/4/3
f 260/4/3 253/4/3 259/4/3
f 263/4/3 256/4/3 255/4/3
f 263/4/3 255/4/3 254/4/3
f 264/4/3 256/4/3 263/4/3
f 265/4/3 256/4/3 264/4/3
f 266/4/3 261/4/3 260/4/3
f 266/4/3 260/4/3 259/4/3
f 267/4/3 261/4/3 266/4/3
f 268/4/3 261/4/3 267/4/3
f 269/4/3 264/4/3 263/4/3
f 269/4/3 263/4/3 262/4/3
f 270/4/3 264/4/3 269/4/3
f 271/4/3 264/4/3 270/4/3
f 272/4/3 268/4/3 267/4/3
f 272/4/3 270/4/3 269/4/3
f 272/4/3 269/4/3 268/4/3
f 273/4/3 270/4/3 272/4/3
f 274/4/3 270/4/3 273/4/3
f 275/4/3 270/4/3 274/4/3
f 276/4/3 274/4/3 273/4/3
f 277/4/3 274/4/3 276/4/3
f 280/1/3 279/1/3 278/1/3
f 281/1/3 279/1/3 280/1/3
f 282/3/3 281/3/3 280/3/3
f 283/3/3 281/3/3 282/3/3
f 284/1/3 283/1/3 282/1/3
f 285/1/3 283/1/3 284/1/3
f 286/3/3 285/3/3 284/3/3
f 287/3/3 285/3/3 286/3/3
f 288/1/3 287/1/3 286/1/3
f 289/1/3 287/1/3 288/1/3
f 293/3/3 289/3/3 288/3/3
f 294/3/3 293/3/3 292/3/3
f 295/3/3 293/3/3 294/3/3
f 296/3/3 293/3/3 295/3/3
f 297/3/3 289/3/3 293/3/3
f 297/3/3 293/3/3 296/3/3
f 298/3/3 289/3/3 297/3/3
f 302/1/3 291/1/3 290/1/3
f 303/4/3 292/4/3 291/4/3
f 303/1/3 291/1/3 302/1/3
f 304/4/3 292/4/3 303/4/3
f 305/1/3 298/1/3 297/1/3
f 305/4/3 297/4/3 296/4/3
f 306/1/3 298/1/3 305/1/3
f 307/1/3 300/1/3 299/1/3
f 308/1/3 300/1/3 307/1/3
f 309/4/3 292/4/3 304/4/3
f 309/3/3 294/3/3 292/3/3
f 310/4/3 295/4/3 294/4/3
f 310/3/3 294/3/3 309/3/3
f 311/3/3 296/3/3 295/3/3
f 311/4/3 306/4/3 305/4/3
f 311/4/3 305/4/3 296/4/3
f 312/4/3 306/4/3 311/4/3
f 313/4/3 306/4/3 312/4/3
f 314/4/3 306/4/3 313/4/3
f 315/1/3 307/1/3 299/1/3
f 316/1/3 307/1/3 315/1/3
f 317/4/3 308/4/3 307/4/3
f 317/1/3 307/1/3 316/1/3
f 318/1/3 300/1/3 308/1/3
f 318/4/3 308/4/3 317/4/3
f 319/4/3 309/4/3 304/4/3
f 319/4/3 310/4/3 309/4/3
f 320/4/3 295/4/3 310/4/3
f 320/4/3 310/4/3 319/4/3
f 321/3/3 311/3/3 295/3/3
f 321/3/3 312/3/3 311/3/3
f 322/4/3 313/4/3 312/4/3
f 322/3/3 312/3/3 321/3/3
f 323/1/3 314/1/3 313/1/3
f 323/4/3 313/4/3 322/4/3
f 324/1/3 314/1/3 323/1/3
f 325/2/3 316/2/3 315/2/3
f 325/1/3 315/1/3 299/1/3
f 326/1/3 317/1/3 316/1/3
f 326/2/3 316/2/3 325/2/3
f 326/1/3 318/1/3 317/1/3
f 327/1/3 318/1/3 326/1/3
f 328/1/3 300/1/3 318/1/3
f 328/1/3 318/1/3 327/1/3
f 331/4/3 319/4/3 304/4/3
f 332/4/3 324/4/3 323/4/3
f 332/4/3 322/4/3 321/4/3
f 332/4/3 323/4/3 322/4/3
f 333/4/3 324/4/3 332/4/3
f 334/1/3 327/1/3 326/1/3
f 334/1/3 326/1/3 325/1/3
f 334/4/3 328/4/3 327/4/3
f 335/1/3 300/1/3 328/1/3
f 335/4/3 328/4/3 334/4/3
f 336/4/3 295/4/3 320/4/3
f 336/3/3 320/3/3 319/3/3
f 337/3/3 321/3/3 295/3/3
f 337/4/3 295/4/3 336/4/3
f 338/4/3 332/4/3 321/4/3
f 338/3/3 321/3/3 337/3/3
f 339/1/3 333/1/3 332/1/3
f 339/4/3 332/4/3 338/4/3
f 340/1/3 333/1/3 339/1/3
f 341/1/3 325/1/3 299/1/3
f 341/1/3 335/1/3 334/1/3
f 341/1/3 334/1/3 325/1/3
f 342/4/3 301/4/3 300/4/3
f 342/1/3 335/1/3 341/1/3
f 342/1/3 300/1/3 335/1/3
f 343/4/3 301/4/3 342/4/3
f 344/1/3 330/1/3 329/1/3
f 345/4/3 331/4/3 330/4/3
f 345/1/3 330/1/3 344/1/3
f 346/3/3 340/3/3 339/3/3
f 346/4/3 331/4/3 345/4/3
f 346/3/3 338/3/3 337/3/3
f 346/3/3 336/3/3 319/3/3
f 346/3/3 339/3/3 338/3/3
f 346/3/3 337/3/3 336/3/3
f 346/4/3 319/4/3 331/4/3
f 347/3/3 340/3/3 346/3/3
f 348/3/3 340/3/3 347/3/3
f 349/3/3 340/3/3 348/3/3
f 350/1/3 349/1/3 348/1/3
f 351/1/3 349/1/3 350/1/3
f 352/3/3 351/3/3 350/3/3
f 353/3/3 351/3/3 352/3/3
f 354/1/3 353/1/3 352/1/3
f 355/1/3 353/1/3 354/1/3
f 356/3/3 355/3/3 354/3/3
f 357/3/3 355/3/3 356/3/3
f 358/1/3 357/1/3 356/1/3
f 359/1/3 357/1/3 358/1/3
f 362/1/3 361/1/3 360/1/3
f 363/1/3 361/1/3 362/1/3
f 364/4/4 365/4/4 368/4/4
f 365/3/4 366/3/4 369/3/4
f 368/4/4 365/4/4 369/4/4
f 369/3/4 366/3/4 370/3/4
f 370/3/4 366/3/4 371/3/4
f 366/4/4 367/4/4 372/4/4
f 371/3/4 366/3/4 372/3/4
f 372/4/4 367/4/4 373/4/4
f 374/4/4 375/4/4 376/4/4
f 376/4/4 375/4/4 377/4/4
f 378/4/4 379/4/4 382/4/4
f 382/4/4 379/4/4 383/4/4
f 383/4/4 379/4/4 384/4/4
f 380/4/4 381/4/4 387/4/4
f 387/4/4 381/4/4 388/4/4
f 388/4/4 381/4/4 389/4/4
f 384/4/4 385/4/4 390/4/4
f 383/4/4 384/4/4 390/4/4
f 390/4/4 385/4/4 391/4/4
f 391/4/4 385/4/4 392/4/4
f 387/4/4 388/4/4 395/4/4
f 386/4/4 387/4/4 395/4/4
f 395/4/4 388/4/4 396/4/4
f 396/4/4 388/4/4 397/4/4
f 392/4/4 393/4/4 398/4/4
f 391/4/4 392/4/4 398/4/4
f 398/4/4 393/4/4 399/4/4
f 399/4/4 393/4/4 400/4/4
f 395/4/4 396/4/4 403/4/4
f 394/4/4 395/4/4 403/4/4
f 403/4/4 396/4/4 404/4/4
f 404/4/4 396/4/4 405/4/4
f 400/4/4 401/4/4 406/4/4
f 399/4/4 400/4/4 406/4/4
f 406/4/4 401/4/4 407/4/4
f 407/4/4 401/4/4 408/4/4
f 403/4/4 404/4/4 411/4/4
f 402/4/4 403/4/4 411/4/4
f 411/4/4 404/4/4 412/4/4
f 412/4/4 404/4/4 413/4/4
f 408/4/4 409/4/4 414/4/4
f 407/4/4 408/4/4 414/4/4
f 414/4/4 409/4/4 415/4/4
f 415/4/4 409/4/4 416/4/4
f 411/4/4 412/4/4 419/4/4
f 410/4/4 411/4/4 419/4/4
f 419/4/4 412/4/4 420/4/4
f 420/4/4 412/4/4 421/4/4
f 416/4/4 417/4/4 422/4/4
f 415/4/4 416/4/4 422/4/4
f 422/4/4 417/4/4 423/4/4
f 423/4/4 417/4/4 424/4/4
f 419/4/4 420/4/4 427/4/4
f 418/4/4 419/4/4 427/4/4
f 427/4/4 420/4/4 428/4/4
f 428/4/4 420/4/4 429/4/4
f 424/4/4 425/4/4 430/4/4
f 423/4/4 424/4/4 430/4/4
f 430/4/4 425/4/4 431/4/4
f 427/4/4 428/4/4 432/4/4
f 426/4/4 427/4/4 432/4/4
f 432/4/4 428/4/4 433/4/4
f 431/4/4 425/4/4 434/4/4
f 434/4/4 425/4/4 435/4/4
f 426/4/4 432/4/4 436/4/4
f 436/4/4 432/4/4 437/4/4
f 438/4/4 439/4/4 442/4/4
f 439/1/4 440/1/4 443/1/4
f 442/4/4 439/4/4 443/4/4
f 440/4/4 441/4/4 444/4/4
f 443/1/4 440/1/4 444/1/4
f 444/4/4 441/4/4 445/4/4
f 446/1/4 447/1/4 448/1/4
f 448/1/4 447/1/4 449/1/4
f 450/4/4 451/4/4 454/4/4
f 451/1/4 452/1/4 455/1/4
f 454/4/4 451/4/4 455/4/4
f 452/4/4 453/4/4 456/4/4
f 455/1/4 452/1/4 456/1/4
f 456/4/4 453/4/4 457/4/4
f 458/1/4 459/1/4 460/1/4
f 460/1/4 459/1/4 461/1/4
f 460/3/4 461/3/4 462/3/4
f 462/3/4 461/3/4 463/3/4
f 462/1/4 463/1/4 464/1/4
f 464/1/4 463/1/4 465/1/4
f 464/3/4 465/3/4 466/3/4
f 466/3/4 465/3/4 467/3/4
f 466/1/4 467/1/4 468/1/4
f 468/1/4 467/1/4 469/1/4
f 468/3/4 469/3/4 472/3/4
f 470/4/4 471/4/4 473/4/4
f 471/3/4 472/3/4 473/3/4
f 472/3/4 469/3/4 474/3/4
f 473/3/4 472/3/4 474/3/4
f 473/1/4 474/1/4 475/1/4
f 474/3/4 469/3/4 475/3/4
f 475/3/4 469/3/4 476/3/4
f 473/1/4 475/1/4 477/1/4
f 475/1/4 476/1/4 477/1/4
f 477/1/4 476/1/4 478/1/4
f 470/4/4 473/4/4 479/4/4
f 473/1/4 477/1/4 479/1/4
f 477/3/4 478/3/4 480/3/4
f 479/1/4 477/1/4 480/1/4
f 470/4/4 479/4/4 481/4/4
f 479/3/4 480/3/4 482/3/4
f 481/4/4 479/4/4 482/4/4
f 480/3/4 478/3/4 483/3/4
f 482/3/4 480/3/4 483/3/4
f 483/3/4 478/3/4 484/3/4
f 484/3/4 478/3/4 485/3/4
f 484/1/4 485/1/4 486/1/4
f 486/1/4 485/1/4 487/1/4
f 486/3/4 487/3/4 488/3/4
f 488/3/4 487/3/4 489/3/4
f 488/1/4 489/1/4 490/1/4
f 490/1/4 489/1/4 491/1/4
f 490/3/4 491/3/4 492/3/4
f 492/3/4 491/3/4 493/3/4
f 492/1/4 493/1/4 494/1/4
f 494/1/4 493/1/4 495/1/4
f 496/1/4 497/1/4 499/1/4
f 497/4/4 498/4/4 500/4/4
f 499/1/4 497/1/4 500/1/4
f 500/4/4 498/4/4 501/4/4
f 506/4/5 503/4/5 502/4/5
f 507/4/5 503/4/5 506/4/5
f 508/4/5 505/4/5 504/4/5
f 509/4/5 505/4/5 508/4/5
f 513/4/5 511/4/5 510/4/5
f 514/4/5 511/4/5 513/4/5
f 516/4/5 513/4/5 512/4/5
f 516/4/5 515/4/5 514/4/5
f 516/4/5 514/4/5 513/4/5
f 517/4/5 515/4/5 516/4/5
f 520/4/5 519/4/5 518/4/5
f 521/4/5 519/4/5 520/4/5
f 522/4/5 519/4/5 521/4/5
f 523/4/5 519/4/5 522/4/5
f 526/4/5 525/4/5 524/4/5
f 527/4/5 525/4/5 526/4/5
f 530/4/5 529/4/5 528/4/5
f 531/4/5 529/4/5 530/4/5
f 534/4/5 533/4/5 532/4/5
f 535/4/5 533/4/5 534/4/5
f 538/4/5 537/4/5 536/4/5
f 539/4/5 537/4/5 538/4/5
f 542/4/5 541/4/5 540/4/5
f 543/4/5 541/4/5 542/4/5
f 546/4/5 545/4/5 544/4/5
f 547/4/5 545/4/5 546/4/5
f 550/4/5 549/4/5 548/4/5
f 551/4/5 549/4/5 550/4/5
f 566/1/5 553/1/5 552/1/5
f 567/3/5 554/3/5 553/3/5
f 567/1/5 553/1/5 566/1/5
f 568/1/5 555/1/5 554/1/5
f 568/3/5 554/3/5 567/3/5
f 569/3/5 556/3/5 555/3/5
f 569/1/5 555/1/5 568/1/5
f 570/1/5 557/1/5 556/1/5
f 570/3/5 556/3/5 569/3/5
f 571/3/5 558/3/5 557/3/5
f 571/1/5 557/1/5 570/1/5
f 572/3/5 558/3/5 571/3/5
f 573/3/5 560/3/5 559/3/5
f 574/1/5 561/1/5 560/1/5
f 574/3/5 560/3/5 573/3/5
f 575/3/5 562/3/5 561/3/5
f 575/1/5 561/1/5 574/1/5
f 576/1/5 563/1/5 562/1/5
f 576/3/5 562/3/5 575/3/5
f 577/3/5 564/3/5 563/3/5
f 577/1/5 563/1/5 576/1/5
f 578/1/5 565/1/5 564/1/5
f 578/3/5 564/3/5 577/3/5
f 579/1/5 565/1/5 578/1/5
f 582/4/5 581/4/5 580/4/5
f 583/4/5 581/4/5 582/4/5
f 588/4/5 585/4/5 584/4/5
f 589/4/5 585/4/5 588/4/5
f 590/1/5 587/1/5 586/1/5
f 591/1/5 587/1/5 590/1/5
f 592/1/5 590/1/5 586/1/5
f 593/1/5 587/1/5 591/1/5
f 594/1/5 592/1/5 586/1/5
f 594/1/5 593/1/5 592/1/5
f 595/1/5 587/1/5 593/1/5
f 595/1/5 593/1/5 594/1/5
f 598/4/5 597/4/5 596/4/5
f 599/4/5 597/4/5 598/4/5
f 602/4/5 601/4/5 600/4/5
f 603/4/5 601/4/5 602/4/5
f 606/4/5 605/4/5 604/4/5
f 607/4/5 605/4/5 606/4/5
f 610/4/5 609/4/5 608/4/5
f 611/4/5 609/4/5 610/4/5
f 614/4/5 613/4/5 612/4/5
f 615/4/5 613/4/5 614/4/5
f 616/4/5 613/4/5 615/4/5
f 617/4/6 618/4/6 621/4/6
f 621/4/6 618/4/6 622/4/6
f 619/4/6 620/4/6 623/4/6
f 623/4/6 620/4/6 624/4/6
f 625/4/6 626/4/6 627/4/6
f 627/4/6 626/4/6 628/4/6
f 628/4/6 626/4/6 629/4/6
f 630/4/6 631/4/6 632/4/6
f 632/4/6 631/4/6 633/4/6
f 634/4/6 635/4/6 636/4/6
f 636/4/6 635/4/6 637/4/6
f 638/4/6 639/4/6 640/4/6
f 640/4/6 639/4/6 641/4/6
f 642/4/6 643/4/6 644/4/6
f 644/4/6 643/4/6 645/4/6
f 646/4/6 647/4/6 648/4/6
f 648/4/6 647/4/6 649/4/6
f 650/4/6 651/4/6 652/4/6
f 652/4/6 651/4/6 653/4/6
f 660/1/6 661/1/6 672/1/6
f 661/4/6 662/4/6 672/4/6
f 662/1/6 663/1/6 673/1/6
f 672/4/6 662/4/6 673/4/6
f 663/4/6 664/4/6 674/4/6
f 673/1/6 663/1/6 674/1/6
f 664/1/6 665/1/6 675/1/6
f 674/4/6 664/4/6 675/4/6
f 672/1/6 673/1/6 676/1/6
f 674/1/6 675/1/6 677/1/6
f 654/1/6 655/1/6 678/1/6
f 655/3/6 656/3/6 679/3/6
f 678/1/6 655/1/6 679/1/6
f 656/1/6 657/1/6 680/1/6
f 679/3/6 656/3/6 680/3/6
f 657/3/6 658/3/6 681/3/6
f 680/1/6 657/1/6 681/1/6
f 658/1/6 659/1/6 682/1/6
f 681/3/6 658/3/6 682/3/6
f 659/3/6 660/3/6 683/3/6
f 682/1/6 659/1/6 683/1/6
f 676/1/6 677/1/6 684/1/6
f 683/3/6 660/3/6 684/3/6
f 660/1/6 672/1/6 684/1/6
f 672/1/6 676/1/6 684/1/6
f 677/1/6 675/1/6 685/1/6
f 684/1/6 677/1/6 685/1/6
f 675/1/6 665/1/6 685/1/6
f 665/3/6 666/3/6 685/3/6
f 666/1/6 667/1/6 686/1/6
f 685/3/6 666/3/6 686/3/6
f 667/3/6 668/3/6 687/3/6
f 686/1/6 667/1/6 687/1/6
f 668/1/6 669/1/6 688/1/6
f 687/3/6 668/3/6 688/3/6
f 669/3/6 670/3/6 689/3/6
f 688/1/6 669/1/6 689/1/6
f 670/1/6 671/1/6 690/1/6
f 689/3/6 670/3/6 690/3/6
f 690/1/6 671/1/6 691/1/6
f 692/4/6 693/4/6 694/4/6
f 694/4/6 693/4/6 695/4/6
f 696/4/6 697/4/6 698/4/6
f 698/4/6 697/4/6 699/4/6
f 700/4/6 701/4/6 702/4/6
f 702/4/6 701/4/6 703/4/6
f 704/4/6 705/4/6 706/4/6
f 706/4/6 705/4/6 707/4/6
f 708/4/6 709/4/6 710/4/6
f 710/4/6 709/4/6 711/4/6
f 712/4/6 713/4/6 714/4/6
f 714/4/6 713/4/6 715/4/6
f 716/4/6 717/4/6 718/4/6
f 718/4/6 717/4/6 719/4/6
f 720/4/6 721/4/6 722/4/6
f 722/4/6 721/4/6 723/4/6
f 723/4/6 721/4/6 726/4/6
f 726/4/6 721/4/6 727/4/6
f 724/4/6 725/4/6 728/4/6
f 728/4/6 725/4/6 729/4/6
