# MagicaVoxel @ Ephtracy

# material
mtllib swim.mtl
usemtl palette

# normals
vn -1 0 0
vn 1 0 0
vn 0 0 1
vn 0 0 -1
vn 0 -1 0
vn 0 1 0

# texcoords
vt 0.0917969 0.5
vt 0.841797 0.5
vt 0.958984 0.5
vt 0.994141 0.5

# verts
v -19 29 -0
v -19 29 -3
v -19 31 -0
v -19 31 -3
v -5 0 4
v -5 0 -2
v -5 2 4
v -5 2 -0
v -5 12 -0
v -5 12 -2
v -5 15 -2
v -5 15 -3
v -5 19 -0
v -5 19 -3
v -5 29 -0
v -5 29 -3
v -3 32 -0
v -3 32 -4
v -3 35 -0
v -3 35 -4
v -3 36 -1
v -3 36 -4
v -3 37 -0
v -3 37 -1
v -3 40 -0
v -3 40 -4
v -1 31 -1
v -1 31 -2
v -1 32 -1
v -1 32 -2
v 2 0 4
v 2 0 -2
v 2 2 4
v 2 2 -0
v 2 12 -0
v 2 12 -2
v 2 15 -0
v 2 15 -2
v -2 0 4
v -2 0 -2
v -2 2 4
v -2 2 -0
v -2 12 -0
v -2 12 -2
v -2 15 -0
v -2 15 -2
v 1 31 -1
v 1 31 -2
v 1 32 -1
v 1 32 -2
v 3 32 -0
v 3 32 -4
v 3 35 -0
v 3 35 -4
v 3 36 -1
v 3 36 -4
v 3 37 -0
v 3 37 -1
v 3 40 -0
v 3 40 -4
v 5 0 4
v 5 0 -2
v 5 2 4
v 5 2 -0
v 5 12 -0
v 5 12 -2
v 5 15 -2
v 5 15 -3
v 5 19 -0
v 5 19 -3
v 5 29 -0
v 5 29 -3
v 19 29 -0
v 19 29 -3
v 19 31 -0
v 19 31 -3
v -5 0 4
v -5 2 4
v -2 0 4
v -2 2 4
v 2 0 4
v 2 2 4
v 5 0 4
v 5 2 4
v -19 29 -0
v -19 31 -0
v -17 29 -0
v -17 31 -0
v -16 29 -0
v -16 31 -0
v -13 29 -0
v -13 31 -0
v -12 29 -0
v -12 31 -0
v -5 2 -0
v -5 12 -0
v -5 19 -0
v -5 29 -0
v -3 32 -0
v -3 35 -0
v -3 37 -0
v -3 40 -0
v -2 2 -0
v -2 12 -0
v -2 15 -0
v -2 36 -0
v -2 37 -0
v -1 33 -0
v -1 34 -0
v -1 36 -0
v -1 37 -0
v 1 33 -0
v 1 34 -0
v 1 36 -0
v 1 37 -0
v 2 2 -0
v 2 12 -0
v 2 15 -0
v 2 36 -0
v 2 37 -0
v 3 32 -0
v 3 35 -0
v 3 37 -0
v 3 40 -0
v 5 2 -0
v 5 12 -0
v 5 19 -0
v 5 29 -0
v 12 29 -0
v 12 31 -0
v 13 29 -0
v 13 31 -0
v 16 29 -0
v 16 31 -0
v 17 29 -0
v 17 31 -0
v 19 29 -0
v 19 31 -0
v -1 31 -1
v -1 32 -1
v 1 31 -1
v 1 32 -1
v -5 0 -2
v -5 12 -2
v -5 15 -2
v -2 0 -2
v -2 12 -2
v -2 15 -2
v -1 31 -2
v -1 32 -2
v 1 31 -2
v 1 32 -2
v 2 0 -2
v 2 12 -2
v 2 15 -2
v 5 0 -2
v 5 12 -2
v 5 15 -2
v -19 29 -3
v -19 31 -3
v -17 29 -3
v -17 31 -3
v -16 29 -3
v -16 31 -3
v -13 29 -3
v -13 31 -3
v -12 29 -3
v -12 31 -3
v -5 15 -3
v -5 19 -3
v -5 29 -3
v 5 15 -3
v 5 19 -3
v 5 29 -3
v 12 29 -3
v 12 31 -3
v 13 29 -3
v 13 31 -3
v 16 29 -3
v 16 31 -3
v 17 29 -3
v 17 31 -3
v 19 29 -3
v 19 31 -3
v -3 32 -4
v -3 35 -4
v -3 36 -4
v -3 40 -4
v 3 32 -4
v 3 35 -4
v 3 36 -4
v 3 40 -4
v -5 0 4
v -2 0 4
v 2 0 4
v 5 0 4
v -4 0 3
v -3 0 3
v -4 0 -1
v -3 0 -1
v -5 0 -2
v -2 0 -2
v 2 0 -2
v 5 0 -2
v -2 15 -0
v 2 15 -0
v -5 15 -2
v -2 15 -2
v 2 15 -2
v 5 15 -2
v -5 15 -3
v 5 15 -3
v -19 29 -0
v -17 29 -0
v -16 29 -0
v -13 29 -0
v -12 29 -0
v -5 29 -0
v 5 29 -0
v 12 29 -0
v 13 29 -0
v 16 29 -0
v 17 29 -0
v 19 29 -0
v -19 29 -3
v -17 29 -3
v -16 29 -3
v -13 29 -3
v -12 29 -3
v -5 29 -3
v 5 29 -3
v 12 29 -3
v 13 29 -3
v 16 29 -3
v 17 29 -3
v 19 29 -3
v -3 32 -0
v 3 32 -0
v -1 32 -1
v 1 32 -1
v -1 32 -2
v 1 32 -2
v -3 32 -4
v 3 32 -4
v -5 2 4
v -2 2 4
v 2 2 4
v 5 2 4
v -5 2 -0
v -2 2 -0
v 2 2 -0
v 5 2 -0
v -19 31 -0
v -17 31 -0
v -16 31 -0
v -13 31 -0
v -12 31 -0
v 12 31 -0
v 13 31 -0
v 16 31 -0
v 17 31 -0
v 19 31 -0
v -1 31 -1
v 1 31 -1
v -1 31 -2
v 1 31 -2
v -19 31 -3
v -17 31 -3
v -16 31 -3
v -13 31 -3
v -12 31 -3
v 12 31 -3
v 13 31 -3
v 16 31 -3
v 17 31 -3
v 19 31 -3
v -3 40 -0
v 3 40 -0
v -3 40 -4
v 3 40 -4

# faces
f 3/1/1 2/1/1 1/1/1
f 4/1/1 2/1/1 3/1/1
f 7/1/1 6/1/1 5/1/1
f 8/1/1 6/1/1 7/1/1
f 9/1/1 6/1/1 8/1/1
f 10/1/1 6/1/1 9/1/1
f 11/4/1 10/4/1 9/4/1
f 13/4/1 11/4/1 9/4/1
f 13/4/1 12/4/1 11/4/1
f 14/4/1 12/4/1 13/4/1
f 15/1/1 14/1/1 13/1/1
f 16/1/1 14/1/1 15/1/1
f 19/1/1 18/1/1 17/1/1
f 20/1/1 18/1/1 19/1/1
f 21/3/1 20/3/1 19/3/1
f 22/3/1 20/3/1 21/3/1
f 23/3/1 21/3/1 19/3/1
f 24/4/1 22/4/1 21/4/1
f 24/3/1 21/3/1 23/3/1
f 25/4/1 24/4/1 23/4/1
f 26/4/1 22/4/1 24/4/1
f 26/4/1 24/4/1 25/4/1
f 29/1/1 28/1/1 27/1/1
f 30/1/1 28/1/1 29/1/1
f 33/1/1 32/1/1 31/1/1
f 34/1/1 32/1/1 33/1/1
f 35/1/1 32/1/1 34/1/1
f 36/1/1 32/1/1 35/1/1
f 37/4/1 36/4/1 35/4/1
f 38/4/1 36/4/1 37/4/1
f 39/1/2 40/1/2 41/1/2
f 41/1/2 40/1/2 42/1/2
f 42/1/2 40/1/2 43/1/2
f 43/1/2 40/1/2 44/1/2
f 43/4/2 44/4/2 45/4/2
f 45/4/2 44/4/2 46/4/2
f 47/1/2 48/1/2 49/1/2
f 49/1/2 48/1/2 50/1/2
f 51/1/2 52/1/2 53/1/2
f 53/1/2 52/1/2 54/1/2
f 53/3/2 54/3/2 55/3/2
f 55/3/2 54/3/2 56/3/2
f 53/3/2 55/3/2 57/3/2
f 55/4/2 56/4/2 58/4/2
f 57/3/2 55/3/2 58/3/2
f 57/4/2 58/4/2 59/4/2
f 58/4/2 56/4/2 60/4/2
f 59/4/2 58/4/2 60/4/2
f 61/1/2 62/1/2 63/1/2
f 63/1/2 62/1/2 64/1/2
f 64/1/2 62/1/2 65/1/2
f 65/1/2 62/1/2 66/1/2
f 65/4/2 66/4/2 67/4/2
f 65/4/2 67/4/2 69/4/2
f 67/4/2 68/4/2 69/4/2
f 69/4/2 68/4/2 70/4/2
f 69/1/2 70/1/2 71/1/2
f 71/1/2 70/1/2 72/1/2
f 73/1/2 74/1/2 75/1/2
f 75/1/2 74/1/2 76/1/2
f 79/1/3 78/1/3 77/1/3
f 80/1/3 78/1/3 79/1/3
f 83/1/3 82/1/3 81/1/3
f 84/1/3 82/1/3 83/1/3
f 87/1/3 86/1/3 85/1/3
f 88/1/3 86/1/3 87/1/3
f 89/3/3 88/3/3 87/3/3
f 90/3/3 88/3/3 89/3/3
f 91/1/3 90/1/3 89/1/3
f 92/1/3 90/1/3 91/1/3
f 93/3/3 92/3/3 91/3/3
f 94/3/3 92/3/3 93/3/3
f 98/1/3 94/1/3 93/1/3
f 103/1/3 96/1/3 95/1/3
f 104/4/3 97/4/3 96/4/3
f 104/1/3 96/1/3 103/1/3
f 105/4/3 97/4/3 104/4/3
f 106/3/3 101/3/3 100/3/3
f 107/4/3 102/4/3 101/4/3
f 107/3/3 101/3/3 106/3/3
f 108/1/3 100/1/3 99/1/3
f 109/1/3 100/1/3 108/1/3
f 110/3/3 106/3/3 100/3/3
f 110/4/3 107/4/3 106/4/3
f 111/4/3 102/4/3 107/4/3
f 111/4/3 107/4/3 110/4/3
f 112/2/3 109/2/3 108/2/3
f 112/1/3 108/1/3 99/1/3
f 113/1/3 100/1/3 109/1/3
f 113/2/3 109/2/3 112/2/3
f 114/3/3 110/3/3 100/3/3
f 114/3/3 111/3/3 110/3/3
f 115/4/3 102/4/3 111/4/3
f 115/3/3 111/3/3 114/3/3
f 118/4/3 97/4/3 105/4/3
f 119/3/3 114/3/3 100/3/3
f 119/4/3 115/4/3 114/4/3
f 120/4/3 102/4/3 115/4/3
f 120/4/3 115/4/3 119/4/3
f 121/1/3 112/1/3 99/1/3
f 121/1/3 113/1/3 112/1/3
f 122/1/3 100/1/3 113/1/3
f 122/1/3 113/1/3 121/1/3
f 122/3/3 120/3/3 119/3/3
f 122/3/3 119/3/3 100/3/3
f 123/4/3 102/4/3 120/4/3
f 123/3/3 120/3/3 122/3/3
f 124/4/3 102/4/3 123/4/3
f 125/1/3 117/1/3 116/1/3
f 126/4/3 118/4/3 117/4/3
f 126/1/3 117/1/3 125/1/3
f 127/1/3 98/1/3 97/1/3
f 127/4/3 118/4/3 126/4/3
f 127/4/3 97/4/3 118/4/3
f 128/1/3 94/1/3 98/1/3
f 128/1/3 98/1/3 127/1/3
f 129/1/3 94/1/3 128/1/3
f 130/1/3 94/1/3 129/1/3
f 131/3/3 130/3/3 129/3/3
f 132/3/3 130/3/3 131/3/3
f 133/1/3 132/1/3 131/1/3
f 134/1/3 132/1/3 133/1/3
f 135/3/3 134/3/3 133/3/3
f 136/3/3 134/3/3 135/3/3
f 137/1/3 136/1/3 135/1/3
f 138/1/3 136/1/3 137/1/3
f 141/1/3 140/1/3 139/1/3
f 142/1/3 140/1/3 141/1/3
f 143/1/4 144/1/4 146/1/4
f 144/4/4 145/4/4 147/4/4
f 146/1/4 144/1/4 147/1/4
f 147/4/4 145/4/4 148/4/4
f 149/1/4 150/1/4 151/1/4
f 151/1/4 150/1/4 152/1/4
f 153/1/4 154/1/4 156/1/4
f 154/4/4 155/4/4 157/4/4
f 156/1/4 154/1/4 157/1/4
f 157/4/4 155/4/4 158/4/4
f 159/1/4 160/1/4 161/1/4
f 161/1/4 160/1/4 162/1/4
f 161/3/4 162/3/4 163/3/4
f 163/3/4 162/3/4 164/3/4
f 163/1/4 164/1/4 165/1/4
f 165/1/4 164/1/4 166/1/4
f 165/3/4 166/3/4 167/3/4
f 167/3/4 166/3/4 168/3/4
f 167/1/4 168/1/4 171/1/4
f 169/4/4 170/4/4 172/4/4
f 170/1/4 171/1/4 173/1/4
f 172/4/4 170/4/4 173/4/4
f 171/1/4 168/1/4 174/1/4
f 173/1/4 171/1/4 174/1/4
f 174/1/4 168/1/4 175/1/4
f 175/1/4 168/1/4 176/1/4
f 175/3/4 176/3/4 177/3/4
f 177/3/4 176/3/4 178/3/4
f 177/1/4 178/1/4 179/1/4
f 179/1/4 178/1/4 180/1/4
f 179/3/4 180/3/4 181/3/4
f 181/3/4 180/3/4 182/3/4
f 181/1/4 182/1/4 183/1/4
f 183/1/4 182/1/4 184/1/4
f 185/1/4 186/1/4 189/1/4
f 186/3/4 187/3/4 190/3/4
f 189/1/4 186/1/4 190/1/4
f 187/4/4 188/4/4 191/4/4
f 190/3/4 187/3/4 191/3/4
f 191/4/4 188/4/4 192/4/4
f 197/1/5 194/1/5 193/1/5
f 198/1/5 194/1/5 197/1/5
f 199/1/5 197/1/5 193/1/5
f 199/2/5 198/2/5 197/2/5
f 200/1/5 194/1/5 198/1/5
f 200/2/5 198/2/5 199/2/5
f 201/1/5 199/1/5 193/1/5
f 201/1/5 200/1/5 199/1/5
f 202/1/5 194/1/5 200/1/5
f 202/1/5 200/1/5 201/1/5
f 203/1/5 196/1/5 195/1/5
f 204/1/5 196/1/5 203/1/5
f 208/4/5 206/4/5 205/4/5
f 209/4/5 206/4/5 208/4/5
f 211/4/5 208/4/5 207/4/5
f 211/4/5 210/4/5 209/4/5
f 211/4/5 209/4/5 208/4/5
f 212/4/5 210/4/5 211/4/5
f 225/1/5 214/1/5 213/1/5
f 226/3/5 215/3/5 214/3/5
f 226/1/5 214/1/5 225/1/5
f 227/1/5 216/1/5 215/1/5
f 227/3/5 215/3/5 226/3/5
f 228/3/5 217/3/5 216/3/5
f 228/1/5 216/1/5 227/1/5
f 229/1/5 218/1/5 217/1/5
f 229/3/5 217/3/5 228/3/5
f 230/1/5 218/1/5 229/1/5
f 231/1/5 220/1/5 219/1/5
f 232/3/5 221/3/5 220/3/5
f 232/1/5 220/1/5 231/1/5
f 233/1/5 222/1/5 221/1/5
f 233/3/5 221/3/5 232/3/5
f 234/3/5 223/3/5 222/3/5
f 234/1/5 222/1/5 233/1/5
f 235/1/5 224/1/5 223/1/5
f 235/3/5 223/3/5 234/3/5
f 236/1/5 224/1/5 235/1/5
f 239/1/5 238/1/5 237/1/5
f 240/1/5 238/1/5 239/1/5
f 241/1/5 239/1/5 237/1/5
f 242/1/5 238/1/5 240/1/5
f 243/1/5 241/1/5 237/1/5
f 243/1/5 242/1/5 241/1/5
f 244/1/5 238/1/5 242/1/5
f 244/1/5 242/1/5 243/1/5
f 245/1/6 246/1/6 249/1/6
f 249/1/6 246/1/6 250/1/6
f 247/1/6 248/1/6 251/1/6
f 251/1/6 248/1/6 252/1/6
f 257/1/6 258/1/6 263/1/6
f 263/1/6 258/1/6 264/1/6
f 257/1/6 263/1/6 265/1/6
f 264/1/6 258/1/6 266/1/6
f 253/1/6 254/1/6 267/1/6
f 254/3/6 255/3/6 268/3/6
f 267/1/6 254/1/6 268/1/6
f 255/1/6 256/1/6 269/1/6
f 268/3/6 255/3/6 269/3/6
f 256/3/6 257/3/6 270/3/6
f 269/1/6 256/1/6 270/1/6
f 265/1/6 266/1/6 271/1/6
f 270/3/6 257/3/6 271/3/6
f 257/1/6 265/1/6 271/1/6
f 258/3/6 259/3/6 272/3/6
f 271/1/6 266/1/6 272/1/6
f 266/1/6 258/1/6 272/1/6
f 259/1/6 260/1/6 273/1/6
f 272/3/6 259/3/6 273/3/6
f 260/3/6 261/3/6 274/3/6
f 273/1/6 260/1/6 274/1/6
f 261/1/6 262/1/6 275/1/6
f 274/3/6 261/3/6 275/3/6
f 275/1/6 262/1/6 276/1/6
f 277/4/6 278/4/6 279/4/6
f 279/4/6 278/4/6 280/4/6
